<svg width="2235" height="1639" viewBox="0 0 2235 1639" fill="none" xmlns="http://www.w3.org/2000/svg">
<path d="M1845.23 726.429H1845.59V780.148H1845.23V991.354H1870.56V672.027H1845.23V726.429Z" fill="#0CE7BB"/>
<path d="M1149.36 245.441C1149.36 245.441 1148.64 247.766 1147.38 251.404C1149.2 251.953 1151.03 252.443 1152.83 253.044C1154.66 250.632 1156.54 248.699 1158.45 247.388C1158.17 244.384 1158.04 238.585 1159.68 231.897H1151.1C1151.28 235.984 1150.8 240.468 1149.36 245.441Z" fill="#0CE7BB"/>
<path d="M1163.66 245.441C1165.19 245.441 1166.77 245.58 1168.4 245.832C1170.16 242.092 1173.53 236.61 1179.25 231.899H1171.28C1167.65 236.575 1164.08 241.42 1161.05 245.998C1161.92 245.689 1162.79 245.441 1163.66 245.441Z" fill="#0CE7BB"/>
<path d="M1178.71 248.756C1183.54 250.222 1190.64 254.103 1198.66 259.423H1416.85L1281.41 440.073C1285.4 440.37 1289.59 441.207 1293.86 443.147C1313.01 451.849 1302.56 490.141 1302.56 490.141C1302.56 490.141 1302.57 490.064 1302.57 490.038C1298.07 510.094 1285.81 529.524 1273.27 533.772C1288.34 559.111 1312.4 601.384 1311.47 611.619C1311.06 616.146 1305.45 625.187 1297.17 635.918C1297.21 636.106 1297.28 636.457 1297.29 636.512C1297.54 637.9 1296.62 639.23 1295.23 639.486C1295.08 639.517 1294.92 639.531 1294.77 639.531C1294.64 639.531 1294.55 639.422 1294.42 639.404C1283.43 653.186 1268.75 669.068 1254.92 681.914C1252.45 687.632 1250.43 691.331 1250.23 691.689C1249.76 692.525 1248.89 692.995 1248 692.995C1247.57 692.995 1247.14 692.889 1246.75 692.664C1245.83 692.151 1245.55 691.162 1245.65 690.178C1239.52 695.373 1233.88 699.537 1229.12 702.284C1222.36 708.02 1215.27 713.555 1207.88 718.755L1218.7 780.028L1247.98 788.911C1236.31 783.878 1228.2 780.483 1228.2 780.483L1343.72 810.145L1524.42 544.333V491.435H1560.38L1718.1 259.42H1810.13V259.193H1845.23V491.435H1870.56V231.899H1868.96V465.383H1858.61V244.588H1677.27C1677.27 244.588 1684.35 234.571 1684.65 231.899H1202.55C1193.33 235.938 1181.78 241.314 1172.35 246.689C1174.42 247.223 1176.54 247.901 1178.71 248.756Z" fill="#0CE7BB"/>
<path d="M1845.23 1390.14H1844.19V1404.33H922.963C923.039 1404.67 923.078 1404.85 923.078 1404.85H837.999C837.999 1404.85 837.923 1404.56 837.862 1404.33H837.27L837.252 1405.24H619.067L619.189 1404.33H383.642V1391.53L383.254 1391.55V1041.64C364.357 1049.84 353.624 1053.82 353.624 1053.82V1218.38C355.932 1216.44 357.899 1214.62 357.899 1214.62V1422.23H550.764V1433.47H1665.84V1422.23H1858.7V1214.62C1858.7 1214.62 1870.38 1225.45 1870.38 1222.65V1433.47H1870.56V1110.07H1845.23L1845.23 1390.14Z" fill="#0CE7BB"/>
<path d="M1870.56 997.135H1845.23V1104.29H1870.56V997.135Z" fill="#0CE7BB"/>
<path d="M1845.23 672.027H1798.94V726.43H1845.23V672.027Z" fill="#172E32"/>
<path d="M1798.94 389.736V491.438H1845.23V259.196H1810.13V259.423H1718.1L1560.38 491.438H1744.83L1798.94 389.736Z" fill="#172E32"/>
<path d="M1252.96 311.74C1261.66 333.495 1256.44 445.758 1256.44 445.758C1256.44 445.758 1267.51 439.038 1281.41 440.073L1416.85 259.423H1198.65C1219.98 273.581 1247.3 297.595 1252.96 311.74Z" fill="#172E32"/>
<path d="M1359 879.015C1359 879.015 1357.82 876.286 1355.91 872.133L1343.66 876.936C1346.54 878.496 1349.4 880.079 1352.26 881.671C1352.07 881.47 1351.96 881.363 1351.96 881.363C1351.96 881.363 1353 881.987 1354.78 883.072C1375.48 894.68 1395.53 907.04 1413.88 919.492C1442.64 937.496 1473.97 957.606 1490.35 969.712L1591.21 780.149H1518.61V726.43H1619.8L1648.74 672.027H1524.42V544.336L1343.72 810.148L1353.91 812.765L1359 879.015Z" fill="#172E32"/>
<path d="M1220.6 789.075L1218.71 780.091L1220.28 788.95L1220.6 789.075Z" fill="#0CE7BB"/>
<path d="M1255.16 603.459C1254.51 604.492 1253.93 605.506 1253.13 606.579C1254.09 605.706 1254.97 604.724 1255.74 603.607C1255.55 603.539 1255.34 603.573 1255.16 603.459Z" fill="#0CE7BB"/>
<path d="M1260.99 587.255C1260.32 591.401 1259.18 595.121 1257.68 598.554C1257.93 598.52 1258.14 598.492 1258.44 598.463C1259.7 595.216 1260.5 591.401 1260.99 587.255Z" fill="#0CE7BB"/>
<path d="M594.578 1356.16H616.511L625.649 1356.05L632.379 1305.74L594.578 1356.16Z" fill="#0CE7BB"/>
<path d="M1744.83 491.438H1798.94V389.736L1744.83 491.438Z" fill="#0CE7BB"/>
<path d="M1798.94 726.429V672.027H1648.74L1619.8 726.429H1798.94Z" fill="#0CE7BB"/>
<path d="M1490.35 969.712C1494.74 972.955 1498.11 975.653 1500.01 977.548C1513.71 991.249 1541.77 1150.78 1552.11 1211.99L1571.99 1295.91L1575.13 1295.84L1798.94 832.032V780.15H1591.21L1490.35 969.712Z" fill="#0CE7BB"/>
<path d="M383.254 1391.55L383.642 1391.53V1404.33H619.189L625.649 1356.05L616.511 1356.16H594.577L632.378 1305.74L670.63 1019.83C670.758 1018.09 670.983 1016.65 671.198 1015.58L671.563 1012.85C671.563 1012.85 671.664 1012.88 671.817 1012.91C682.013 962.665 766.257 913.147 843.086 876.311L830.44 871.425L837.411 820.107L967.269 781.302L965.942 788.948L887.915 820.106L939.305 836.551L942.122 838.048L958.859 829.75L958.863 829.749L965.944 788.948H965.942L977.156 724.326C977.619 724.57 978.085 724.85 978.544 725.08C1020.17 745.838 1081.21 771.687 1154.16 746.649C1158.91 745.017 1163.71 743.184 1168.57 741.104C1182.37 735.191 1195.53 727.458 1207.88 718.755C1215.26 713.556 1222.36 708.021 1229.11 702.284C1228.56 702.604 1227.94 703.026 1227.41 703.304C1227.41 703.304 1242.94 682.459 1257.19 658.755C1258.1 654.897 1258.85 650.9 1259.28 646.787L1230.7 658.371L1226.96 673.006L1222.73 661.882L1222.2 662.074C1220.47 662.804 1218.74 663.495 1217.01 664.173C1216.11 680.976 1212.29 709.514 1212.12 710.875C1211.94 712.161 1210.85 713.095 1209.58 713.095C1209.47 713.095 1209.35 713.09 1209.24 713.069C1207.84 712.885 1206.85 711.593 1207.04 710.195C1207.08 709.875 1210.66 683.111 1211.76 666.184C1208.46 667.378 1205.19 668.485 1201.98 669.432L1189.62 686.272V672.62C1150.79 681.451 1120.65 676.399 1118.15 675.945C1118.04 675.926 1117.88 675.897 1117.88 675.897C1117.88 675.897 1110.19 676.853 1098.75 677.099C1082.86 677.44 1059.68 676.401 1039.36 669.434C1015.5 661.255 976.223 641.884 952.366 624.009C942.612 616.702 935.582 609.685 933.103 603.746C933.81 604.743 934.601 605.628 935.457 606.429C934.167 604.673 933.067 602.971 932.184 601.333C928.04 581.215 951.411 534.579 951.411 514.239C951.411 493.898 945.542 479.049 945.542 479.049L918.693 534.932C917.314 534.901 915.902 534.788 914.446 534.536C913.446 534.363 912.446 533.984 911.446 533.612C910.42 539.021 908.575 544.374 905.257 547.68C902.936 550 900.125 551.178 896.922 551.178C896.624 551.178 896.324 551.166 896.022 551.148C889.802 550.737 884.809 546.736 883.308 540.951C881.768 535.039 884.27 529.125 889.831 525.525C891.01 524.777 892.61 525.1 893.372 526.286C894.141 527.469 893.802 529.057 892.61 529.827C888.249 532.648 887.51 536.759 888.258 539.659C889.01 542.534 891.53 545.721 896.361 546.035C898.491 546.159 900.173 545.514 901.643 544.055C904.346 541.359 905.836 536.35 906.656 531.174C887.951 518.576 872.284 475.57 886.073 453.903C897.667 435.683 923.107 444.404 935.592 450.188C934.31 433.118 932.701 414.149 931.78 400.34C935.606 395.026 941.662 387.762 950.313 380.674C955.777 376.195 962.264 371.802 969.845 368.047C1000.17 353.03 1034.49 344.201 1034.49 344.201L959.721 385.063C959.721 385.063 1050.07 358.779 1081.92 344.201C1113.77 329.623 1134.69 282.341 1134.69 282.341C1134.69 282.339 1134.69 282.339 1134.69 282.339C1134.77 282.182 1134.86 282.023 1134.94 281.863C1134.94 281.852 1134.94 281.841 1134.95 281.83C1143.53 265.057 1138.13 245.326 1124.43 233.814C1124.75 234.15 1125.13 234.475 1125.41 234.816C1126.31 235.902 1126.16 237.517 1125.08 238.423C1123.98 239.324 1122.38 239.185 1121.47 238.097C1116.47 232.089 1103.94 226.047 1086.55 221.568C1085 221.551 1083.45 221.468 1081.92 221.588C1068.63 222.613 1041.55 224.759 1012.9 232.007C1036.24 229.661 1054.5 232.9 1056.63 234.333C1057.8 235.121 1058.11 236.713 1057.32 237.887C1056.58 239.004 1055.11 239.338 1053.96 238.7C1047.21 235.987 991.673 228.847 946.724 262.069C938.288 268.743 930.849 276.437 925.203 285.561C899.408 327.248 895.597 380.728 895.226 403.653C898.408 416.939 902.581 424.933 902.703 425.147C903.373 426.389 902.925 427.942 901.683 428.625C901.295 428.841 900.875 428.939 900.453 428.939C899.553 428.939 898.672 428.458 898.213 427.607C898.13 427.459 896.182 423.731 893.913 417.319C892.011 420.644 891.202 422.635 891.202 422.635C891.202 422.635 859.128 342.614 916.172 262.397C925.273 249.6 935.577 239.648 946.568 231.895H937.871C922.213 239.281 909.212 248.778 899.893 260.324C844.557 328.86 867.715 406.732 867.955 407.502C868.394 408.847 867.664 410.288 866.313 410.728C866.053 410.813 865.783 410.853 865.525 410.853C864.442 410.853 863.443 410.168 863.091 409.084C862.832 408.293 838.875 327.746 895.91 257.102C903.829 247.292 914.198 238.857 926.515 231.895H531.956C532.253 234.568 539.34 244.584 539.34 244.584H357.997V465.379H353.624V592.438L355.839 594.652L353.624 596.87V748.865H449.525V907.161H353.624V1053.81C353.624 1053.81 364.357 1049.84 383.254 1041.63V1391.55ZM931.672 398.597C931.294 392.712 931.051 387.836 931.051 384.731C931.051 382.947 931.186 380.976 931.385 378.926C937.114 375.102 942.362 371.937 944.911 370.434C945.924 369.837 946.554 369.473 946.554 369.473L946.534 369.511L931.672 398.597ZM913.457 393.006C915.969 390.337 919.535 387.405 923.391 384.541C919.755 387.397 916.36 390.246 913.439 393.026C913.446 393.019 913.451 393.013 913.457 393.006Z" fill="#172E32"/>
<path d="M443.743 754.65H353.624V901.383H443.743V754.65Z" fill="#172E32"/>
<path d="M1798.94 780.148V832.03L1575.13 1295.84L1571.99 1295.91L1597.55 1403.8H1464.72L1464.73 1403.81H1369.67L1369.67 1403.8H922.842C922.879 1403.96 922.935 1404.2 922.962 1404.33H1844.19V1390.14H1845.23V1110.06H1780.51V991.354H1845.23V780.148H1798.94Z" fill="#172E32"/>
<path d="M1845.23 997.135H1786.29V1104.29H1845.23V997.135Z" fill="#172E32"/>
<path d="M837.281 1403.8L837.27 1404.33H837.862C837.82 1404.17 837.79 1404.05 837.723 1403.8H837.281Z" fill="#172E32"/>
<path d="M1858.61 244.588V465.383H1868.95V231.899V231.226H1684.28C1684.6 231.226 1684.69 231.488 1684.65 231.899C1684.35 234.572 1677.27 244.588 1677.27 244.588H1858.61Z" fill="#F2E0E0"/>
<path d="M1858.7 1214.62V1422.22H1665.84V1433.47V1434.07H1870.38V1433.47V1222.65C1870.38 1225.45 1858.7 1214.62 1858.7 1214.62Z" fill="#F2E0E0"/>
<path d="M357.997 244.588H539.34C539.34 244.588 532.253 234.571 531.956 231.899C531.911 231.489 532.002 231.226 532.328 231.226H347.651V465.383H353.624H357.997V244.588Z" fill="#F2E0E0"/>
<path d="M357.899 1422.22V1214.62C357.899 1214.62 355.932 1216.43 353.624 1218.38C350.289 1221.2 346.229 1224.3 346.229 1222.65V1434.07H550.764V1433.47V1422.22H357.899Z" fill="#F2E0E0"/>
<path d="M1872.81 931.256H1921.68V991.354H1870.56H1845.23H1780.51V1110.07H1845.23H1870.56H1901.05V1104.29H1870.56H1845.23H1786.29V997.135H1845.23H1870.56H1927.46V925.475H1872.81V931.256Z" fill="#0CE7BB"/>
<path d="M1354.78 883.072C1362.8 887.938 1387.18 902.773 1413.88 919.492C1395.53 907.04 1375.48 894.68 1354.78 883.072Z" fill="#0CE7BB"/>
<path d="M837.314 1402.21L837.281 1403.79H837.723C837.619 1403.4 837.477 1402.85 837.314 1402.21Z" fill="#0CE7BB"/>
<path d="M807.792 1244.62C799.015 1177.8 785.314 1111.02 768.558 1088.19C761.345 1078.36 735.485 1055.62 714.717 1053.81C711.231 1053.5 708.043 1053.07 705.075 1052.54C700.87 1095.99 687.837 1255.73 718.033 1304.62C746.407 1350.56 807.359 1365.43 829.596 1369.44C823.304 1340.81 814.637 1296.78 807.792 1244.62Z" fill="#0CE7BB"/>
<path d="M1058.07 899.624L1095.6 970.647L1096.26 971.041L1096.26 971.039L1133.44 899.624L1250.45 836.552L1224.1 825.155C1221.33 840.458 1209.69 853.269 1193.59 856.552C1161.1 863.179 1111.8 871.199 1064.2 871.343C1046.56 855.642 1022.46 832.773 1019.86 822.905C1015.71 807.159 1012.66 760.769 1012.66 760.769C1021.07 769.729 1096.36 783.694 1126.11 768.918C1133.82 765.087 1143.86 756.611 1154.16 746.649C1081.21 771.688 1020.17 745.839 978.544 725.08C978.085 724.849 977.619 724.57 977.156 724.326L965.942 788.948H965.944L958.863 829.749L958.859 829.75L942.122 838.048L1058.07 899.624Z" fill="#959BAB"/>
<path d="M1012.67 760.771C1012.67 760.771 1015.71 807.161 1019.86 822.907C1022.46 832.775 1046.56 855.644 1064.2 871.345C1111.8 871.201 1161.11 863.181 1193.59 856.554C1209.69 853.271 1221.33 840.459 1224.1 825.157L1222.73 824.568L1220.27 788.951H1220.28L1218.71 780.093L1218.7 780.032H1218.7L1207.88 718.759C1195.53 727.461 1182.37 735.194 1168.57 741.108C1163.71 743.188 1158.91 745.021 1154.16 746.653C1143.86 756.615 1133.82 765.091 1126.11 768.922C1096.36 783.695 1021.07 769.73 1012.67 760.771ZM1138.76 782.603C1138.76 782.603 1134.53 812.218 1082.92 823.02C1031.31 833.823 1050.73 784.468 1050.73 784.468C1050.73 784.468 1066.41 800.001 1098.13 800.033C1125.71 800.062 1138.76 782.603 1138.76 782.603Z" fill="#F2E0E0"/>
<path d="M1050.73 784.468C1050.73 784.468 1031.31 833.823 1082.92 823.02C1134.53 812.219 1138.76 782.603 1138.76 782.603C1138.76 782.603 1125.71 800.062 1098.12 800.033C1066.41 800.001 1050.73 784.468 1050.73 784.468Z" fill="#959BAB"/>
<path d="M1034.33 527.107C1034.9 528.772 1035.26 529.94 1035.26 529.94C1035.26 529.94 1014.98 523.582 1014.48 527.447C1012.81 540.188 1031.03 538.606 1034.2 537.149C1034.98 536.788 1037.97 535.45 1042.06 533.693C1038.1 531.451 1035.34 529.061 1034.33 527.107Z" fill="#F2E0E0"/>
<path d="M1086.6 563.036C1086.58 563.041 1086.53 563.049 1086.51 563.053C1086.54 563.059 1086.59 563.068 1086.62 563.074C1086.94 563.042 1087.4 562.956 1086.6 563.036Z" fill="#F2E0E0"/>
<path d="M1108.77 543.213C1109.71 543.383 1110.65 543.557 1111.45 543.884C1110.65 543.557 1109.75 543.341 1108.77 543.213Z" fill="#F2E0E0"/>
<path d="M1086.47 563.047C1086.44 563.058 1086.49 563.053 1086.49 563.059C1086.49 563.058 1086.5 563.056 1086.51 563.053C1086.5 563.053 1086.48 563.05 1086.47 563.047Z" fill="#F2E0E0"/>
<path d="M939.164 609.656C936.844 606.962 934.519 604.224 932.186 601.335C933.07 602.973 934.169 604.674 935.459 606.431C935.691 606.646 935.853 606.953 936.096 607.155C936.944 607.855 938.075 608.771 939.164 609.656Z" fill="#F2E0E0"/>
<path d="M1207.47 638.246C1206.83 637.149 1206.99 635.745 1208.02 634.952C1209.14 634.091 1210.72 634.287 1211.59 635.391C1211.6 635.412 1211.7 635.543 1211.76 635.628C1229.96 624.486 1244.63 613.775 1252.63 607.154C1252.82 606.995 1252.95 606.75 1253.13 606.579C1253.93 605.506 1254.51 604.492 1255.16 603.459C1254.63 603.117 1254.2 602.603 1254.04 601.949C1253.7 600.576 1254.53 599.196 1255.9 598.851C1256.01 598.825 1256.7 598.685 1257.68 598.553C1259.18 595.12 1260.32 591.4 1260.99 587.254C1261.03 586.965 1261.08 586.691 1261.11 586.401C1260.61 584.606 1244.32 526.643 1234.1 508.202C1223.71 489.472 1240.5 471.539 1240.5 471.539L1256.54 504.722C1256.36 503.516 1256.12 502.398 1256.08 500.998C1255.54 482.544 1267.27 450.204 1285.39 457.034C1265.6 449.164 1248.93 456.103 1248.93 456.103C1248.93 456.103 1232.96 443.881 1232.42 437.238C1231.87 430.596 1235.69 408.298 1235.69 408.298C1235.69 408.298 1217.55 401.732 1212.16 385.685C1212.1 385.554 1212.05 385.407 1212 385.272C1211.86 384.847 1211.63 384.492 1211.52 384.053C1211.49 383.941 1211.46 383.8 1211.43 383.683C1207.12 371.845 1204.67 351.26 1198.33 334.941C1193.85 324.785 1187.69 316.038 1178.82 311.65C1156.01 299.978 1131.24 304.377 1131.24 304.377C1131.24 304.377 1140.8 268.925 1152.83 253.044C1151.03 252.442 1149.2 251.953 1147.38 251.404C1144.97 258.394 1140.52 270.461 1134.95 281.831C1134.95 281.842 1134.95 281.853 1134.94 281.864C1134.86 282.024 1134.78 282.183 1134.69 282.34V282.342C1134.69 282.342 1113.77 329.624 1081.92 344.202C1050.08 358.781 959.726 385.064 959.726 385.064L1034.5 344.202C1034.5 344.202 1000.17 353.031 969.85 368.048C962.269 371.803 955.783 376.196 950.318 380.675C951.263 386.396 951.966 390.969 952.163 393.004C952.975 401.393 956.957 528.571 970.026 562.322C990.292 614.653 1084.64 669.169 1098.76 677.098C1110.2 676.852 1117.88 675.896 1117.88 675.896C1117.88 675.896 1118.04 675.924 1118.15 675.944C1118.27 675.922 1118.38 675.92 1118.5 675.896C1149.21 669.481 1181.55 653.718 1207.47 638.246ZM1171.76 449.587C1171.76 456.407 1166.23 461.936 1159.41 461.936C1152.59 461.936 1147.07 456.407 1147.07 449.587C1147.07 447.488 1147.73 445.603 1148.65 443.873C1136.77 443.774 1131.24 441.883 1131.24 441.883C1131.24 441.883 1153.43 430.203 1168.94 437.435C1184.45 444.667 1189.83 450.854 1189.83 450.854C1189.83 450.854 1181.08 448.444 1171.13 446.459C1171.4 447.482 1171.76 448.478 1171.76 449.587ZM1132 387.609C1132 387.609 1134.88 398.269 1142.22 399.708C1156.08 402.427 1222.73 411.874 1222.73 411.874C1222.73 411.874 1218.94 428.148 1215.21 429.252C1211.65 430.303 1129.55 431.34 1116.84 424.027L1116.84 424.152C1116.84 424.152 1116.43 423.859 1115.81 423.251C1115.68 423.122 1115.4 423.013 1115.31 422.88C1115.26 422.799 1115.25 422.691 1115.2 422.609C1113.37 420.593 1110.54 416.415 1109.42 408.928C1107.61 396.778 1117.88 384.732 1117.88 384.732L1117.22 409.813C1122.18 399.385 1132 387.609 1132 387.609ZM1109.04 422.638C1109.04 422.638 1103.62 419.251 1101.13 408.047C1098.46 396.086 1106.52 383.287 1106.52 383.287L1109.04 422.638ZM1041.25 608.811C1022.25 593.659 1001.21 569.745 993.393 554.25C992.568 560.384 990.906 568.068 990.906 568.068C990.906 568.068 979.963 546.27 987.714 540.553C988.854 539.713 990.115 539.07 991.417 538.521C995.961 526.797 1012.53 517.724 1019.44 514.386C1019.87 514.151 1020.27 513.992 1020.7 513.79C1021.74 513.303 1022.39 513.023 1022.44 513.004C1024.32 512.338 1025.96 512.184 1026.99 512.921C1029.66 514.838 1032.37 521.529 1033.93 525.93C1032.84 518.503 1055.47 455.084 1055.47 453.487C1055.47 449.728 1053.63 445.958 1050.41 442.945C1047.56 443.404 1043.34 443.826 1037.79 443.871C1038.71 445.602 1039.37 447.486 1039.37 449.585C1039.37 456.405 1033.84 461.934 1027.02 461.934C1020.2 461.934 1014.67 456.405 1014.67 449.585C1014.67 448.476 1015.03 447.481 1015.3 446.458C1005.36 448.443 996.6 450.853 996.6 450.853C996.6 450.853 1001.53 445.308 1015.15 438.596C1001.22 438.628 985.812 435.351 980.973 430.406C977.557 430.301 975.195 430.159 974.678 429.996C971.163 428.894 963.701 411.872 963.701 411.872C963.701 411.872 1030.46 404.675 1042.76 399.342C1055.06 394.011 1061.21 384.052 1061.21 384.052C1061.21 384.052 1065.37 398.394 1066.24 410.129L1072.13 382.283C1072.13 382.283 1079.24 395.244 1074.96 406.651C1073.63 410.189 1072.01 413.15 1070.39 415.64C1076.39 418.622 1081.92 424.269 1081.92 435.07C1081.92 435.812 1081.49 437.336 1080.8 439.337C1081.48 439.033 1082.23 438.948 1082.94 439.297C1084.21 439.916 1084.73 441.452 1084.11 442.722C1069.85 471.715 1055.89 505.874 1058.18 510.505C1060.6 514.362 1085.99 514.767 1108.13 512.734C1109.54 512.673 1110.79 513.637 1110.92 515.048C1111.05 516.459 1110.01 517.703 1108.61 517.834C1108.25 517.867 1107.69 517.911 1107.28 517.946C1106.56 519.398 1105.36 521.337 1103.5 523.575C1116.34 527.938 1134.84 536.161 1136.97 537.146C1140.13 538.603 1158.36 540.185 1156.69 527.444C1156.19 523.58 1135.91 529.937 1135.91 529.937C1135.91 529.937 1140.12 515.835 1144.18 512.918C1148.25 510.001 1161.78 520.89 1162.03 523.048C1162.68 528.51 1163.32 532.916 1163.78 536.53C1167.66 536.949 1172.11 537.995 1175.57 540.55C1183.32 546.267 1172.38 568.065 1172.38 568.065C1172.38 568.065 1170.69 560.268 1169.87 554.116C1169.55 551.677 1167.14 548.413 1164.36 545.347C1164.26 546.877 1163.98 548.133 1163.44 549.167C1162.76 550.408 1161.63 551.401 1160.06 552.16C1153.83 557.54 1140.88 568.245 1134.67 569.832C1126.93 571.813 1093.74 564.312 1086.62 563.072C1086.5 563.083 1086.47 563.077 1086.49 563.057C1081.44 564.099 1044.78 571.951 1036.5 569.832C1035.43 569.561 1034.13 568.952 1032.74 568.221H1019.95C1019.95 568.221 1036.18 582.191 1055.31 591.838C1056.01 593.16 1056.7 594.478 1057.36 595.74C1062.23 605.001 1071.24 611.376 1081.6 612.831C1095.67 614.806 1113.66 608.734 1113.55 611.058C1112.69 628.908 1070.31 630.318 1068.59 630.192C1065.36 629.95 1051.61 617.069 1041.25 608.811Z" fill="#F2E0E0"/>
<path d="M1113.55 611.059C1113.66 608.735 1095.67 614.807 1081.6 612.832C1071.24 611.377 1062.23 605.003 1057.36 595.741C1056.7 594.479 1056.01 593.161 1055.31 591.839C1036.18 582.192 1019.95 568.222 1019.95 568.222H1032.74C1026.01 564.67 1016.28 556.622 1011.12 552.161C1009.14 550.45 1007.91 549.32 1007.73 549.156C1005.61 545.138 1007.36 537.964 1009.14 523.049C1009.29 521.716 1014.51 517.067 1019.44 514.383C1012.53 517.721 995.961 526.794 991.417 538.518C990.115 539.067 988.854 539.71 987.714 540.55C979.963 546.267 990.906 568.065 990.906 568.065C990.906 568.065 992.568 560.381 993.393 554.247C1001.21 569.742 1022.24 593.656 1041.25 608.808C1051.61 617.066 1065.36 629.947 1068.6 630.19C1070.31 630.319 1112.69 628.909 1113.55 611.059Z" fill="#959BAB"/>
<path d="M1020.7 513.79C1021.29 513.51 1021.88 513.202 1022.44 513.004C1022.39 513.024 1021.74 513.303 1020.7 513.79Z" fill="#959BAB"/>
<path d="M1042.06 533.692C1054.54 528.328 1077.37 519.004 1079.84 521.201C1081.74 522.882 1083.98 526.746 1085.59 529.766C1087.19 526.745 1089.43 522.881 1091.33 521.201C1092.4 520.25 1097.29 521.471 1103.49 523.577C1105.36 521.339 1106.56 519.4 1107.28 517.948C1101.8 518.429 1092.23 519.14 1082.48 519.14C1069.61 519.14 1056.77 517.888 1053.82 513.208C1048.72 505.061 1070.09 459.622 1079.5 440.464C1079.78 439.912 1080.28 439.576 1080.8 439.339C1081.49 437.339 1081.92 435.814 1081.92 435.072C1081.92 424.27 1076.39 418.623 1070.39 415.642C1068.24 418.962 1066.15 421.352 1064.79 422.719C1064.76 422.767 1064.75 422.832 1064.72 422.879C1064.63 423.027 1064.35 423.151 1064.21 423.294C1063.66 423.821 1063.28 424.151 1063.28 424.151L1063.3 424.039C1053.47 430.267 999.566 430.976 980.97 430.409C985.809 435.353 1001.22 438.63 1015.15 438.599C1015.94 438.211 1016.64 437.833 1017.49 437.437C1033 430.204 1055.19 441.885 1055.19 441.885C1055.19 441.885 1053.64 442.426 1050.4 442.948C1053.63 445.96 1055.47 449.73 1055.47 453.49C1055.47 455.086 1032.83 518.506 1033.92 525.933C1034.07 526.349 1034.21 526.741 1034.33 527.11C1035.34 529.061 1038.1 531.451 1042.06 533.692Z" fill="#959BAB"/>
<path d="M1280.25 604.276C1280.27 603.586 1280.42 602.807 1280.38 602.161C1279.15 576.312 1264.51 524.828 1261.9 515.82L1256.54 504.723L1240.49 471.54C1240.49 471.54 1223.71 489.473 1234.09 508.203C1244.32 526.644 1260.6 584.606 1261.11 586.402C1261.08 586.692 1261.03 586.966 1260.99 587.255C1260.5 591.401 1259.7 595.216 1258.44 598.463C1262.59 598.043 1271.26 598.168 1280.25 604.276Z" fill="#0D7D85"/>
<path d="M939.164 609.656C938.075 608.771 936.944 607.856 936.097 607.154C935.854 606.953 935.692 606.645 935.46 606.43C934.603 605.629 933.812 604.745 933.106 603.747C935.585 609.686 942.615 616.703 952.369 624.01C947.994 619.548 943.593 614.796 939.164 609.656Z" fill="#0D7D85"/>
<path d="M1053.82 513.209C1056.77 517.888 1069.61 519.141 1082.48 519.141C1092.23 519.141 1101.8 518.429 1107.28 517.949C1107.69 517.914 1108.25 517.87 1108.61 517.837C1110.01 517.705 1111.05 516.462 1110.92 515.051C1110.79 513.64 1109.54 512.676 1108.13 512.737C1085.99 514.77 1060.6 514.365 1058.18 510.508C1055.89 505.877 1069.85 471.718 1084.1 442.725C1084.72 441.456 1084.2 439.919 1082.94 439.3C1082.23 438.951 1081.48 439.036 1080.8 439.34C1080.28 439.577 1079.78 439.914 1079.5 440.465C1070.09 459.623 1048.72 505.062 1053.82 513.209Z" fill="#172E32"/>
<path d="M1063.3 424.038L1063.28 424.15C1063.28 424.15 1063.66 423.821 1064.21 423.293C1064.35 423.15 1064.63 423.026 1064.72 422.878C1064.75 422.832 1064.76 422.766 1064.79 422.718C1066.15 421.351 1068.24 418.961 1070.39 415.641C1072 413.151 1073.63 410.19 1074.96 406.652C1079.24 395.244 1072.13 382.284 1072.13 382.284L1066.24 410.13C1065.37 398.395 1061.21 384.053 1061.21 384.053C1061.21 384.053 1055.06 394.012 1042.76 399.343C1030.46 404.675 963.701 411.873 963.701 411.873C963.701 411.873 971.163 428.895 974.678 429.997C975.196 430.161 977.557 430.302 980.973 430.407C999.568 430.976 1053.47 430.267 1063.3 424.038Z" fill="#0D7D85"/>
<path d="M1055.19 441.883C1055.19 441.883 1033 430.203 1017.5 437.435C1016.65 437.831 1015.94 438.209 1015.15 438.597C1001.53 445.31 996.598 450.854 996.598 450.854C996.598 450.854 1005.35 448.444 1015.3 446.459C1015.02 447.482 1014.67 448.476 1014.67 449.586C1014.67 456.406 1020.2 461.935 1027.02 461.935C1033.84 461.935 1039.36 456.406 1039.36 449.586C1039.36 447.487 1038.71 445.602 1037.78 443.872C1043.34 443.827 1047.56 443.405 1050.4 442.946C1053.64 442.424 1055.19 441.883 1055.19 441.883Z" fill="#172E32"/>
<path d="M1109.42 408.927C1110.53 416.414 1113.37 420.591 1115.2 422.608C1115.25 422.69 1115.25 422.798 1115.31 422.879C1115.39 423.012 1115.68 423.121 1115.8 423.25C1116.43 423.858 1116.84 424.151 1116.84 424.151L1116.84 424.026C1129.55 431.339 1211.65 430.302 1215.21 429.251C1218.94 428.148 1222.73 411.873 1222.73 411.873C1222.73 411.873 1156.08 402.426 1142.22 399.707C1134.88 398.268 1132 387.608 1132 387.608C1132 387.608 1122.18 399.385 1117.22 409.811L1117.88 384.73C1117.88 384.73 1107.61 396.777 1109.42 408.927Z" fill="#0D7D85"/>
<path d="M1101.13 408.047C1103.62 419.251 1109.04 422.638 1109.04 422.638L1106.52 383.287C1106.52 383.287 1098.47 396.086 1101.13 408.047Z" fill="#0D7D85"/>
<path d="M1168.94 437.436C1153.43 430.203 1131.24 441.884 1131.24 441.884C1131.24 441.884 1136.77 443.775 1148.65 443.874C1147.73 445.605 1147.07 447.489 1147.07 449.588C1147.07 456.408 1152.59 461.937 1159.41 461.937C1166.23 461.937 1171.76 456.408 1171.76 449.588C1171.76 448.479 1171.41 447.483 1171.13 446.461C1181.08 448.446 1189.83 450.856 1189.83 450.856C1189.83 450.856 1184.45 444.667 1168.94 437.436Z" fill="#172E32"/>
<path d="M944.911 370.434C942.363 371.938 937.114 375.102 931.385 378.926C931.186 380.975 931.051 382.946 931.051 384.731C931.051 387.836 931.294 392.712 931.672 398.597L946.534 369.511C945.967 369.813 945.469 370.13 944.911 370.434Z" fill="#959BAB"/>
<path d="M970.025 562.323C956.956 528.572 952.973 401.394 952.162 393.005C951.964 390.969 951.261 386.396 950.317 380.676C941.666 387.763 935.61 395.028 931.784 400.342C932.704 414.151 934.314 433.12 935.596 450.19C923.11 444.406 897.67 435.685 886.077 453.905C872.288 475.572 887.954 518.578 906.66 531.176C907.614 525.152 907.649 518.894 907.45 515.721C907.369 514.31 908.44 513.092 909.85 513.004C911.25 512.838 912.483 513.996 912.57 515.399C912.607 515.993 913.108 524.875 911.45 533.615C912.45 533.987 913.45 534.366 914.45 534.539C915.906 534.79 917.318 534.904 918.697 534.935L945.546 479.052C945.546 479.052 951.415 493.901 951.415 514.242C951.415 534.582 928.045 581.218 932.188 601.336C934.52 604.225 936.845 606.964 939.166 609.657C943.595 614.798 947.996 619.549 952.371 624.011C976.228 641.885 1015.51 661.257 1039.37 669.436C1059.69 676.403 1082.87 677.441 1098.76 677.101C1084.64 669.171 990.292 614.655 970.025 562.323ZM915.181 520.54C915.181 520.54 916.122 491.393 907.436 483.171C898.753 474.947 891.155 483.171 891.155 483.171C891.155 483.171 886.793 461.956 899.838 457.037C917.955 450.207 929.69 482.547 929.15 501.001C928.605 519.452 915.181 520.54 915.181 520.54Z" fill="#959BAB"/>
<path d="M1212.16 385.685C1212.11 385.543 1212.04 385.417 1211.99 385.272C1212.05 385.407 1212.1 385.555 1212.16 385.685Z" fill="#0D7D85"/>
<path d="M1211.42 383.684C1208.57 372.735 1205.8 351.901 1198.33 334.942C1204.67 351.261 1207.11 371.846 1211.42 383.684Z" fill="#0D7D85"/>
<path d="M1124.43 233.816C1138.13 245.328 1143.53 265.058 1134.95 281.832C1140.52 270.462 1144.97 258.395 1147.38 251.405C1148.64 247.767 1149.36 245.442 1149.36 245.442C1150.8 240.469 1151.28 235.984 1151.1 231.899C1150.14 210.02 1128 200.976 1104.81 206.416C1087.52 210.477 1039.99 199.877 992.893 211.341C1002.71 210.111 1012.95 209.436 1023.57 209.353C1068.34 209.253 1110.94 219.474 1124.43 233.816Z" fill="#0D7D85"/>
<path d="M1023.61 214.472C1000.46 214.653 979.278 217.822 960.581 223.366C955.816 225.862 951.132 228.681 946.571 231.899C935.579 239.652 925.276 249.603 916.175 262.401C859.131 342.618 891.205 422.639 891.205 422.639C891.205 422.639 892.014 420.647 893.916 417.323C886.549 396.509 875.654 346.401 913.05 290.249C937.916 252.909 973.026 239.158 998.094 234.19C1003.19 233.18 1008.14 232.489 1012.9 232.009C1041.55 224.76 1068.63 222.615 1081.92 221.59C1083.45 221.47 1085.01 221.553 1086.56 221.57C1070 217.308 1049.04 214.463 1025.83 214.463C1025.09 214.463 1024.36 214.469 1023.61 214.472Z" fill="#0D7D85"/>
<path d="M917.311 293.09C887.032 338.563 889.51 379.771 895.228 403.655C895.599 380.73 899.41 327.251 925.205 285.563C930.851 276.439 938.29 268.744 946.726 262.071C936.064 269.95 925.987 280.062 917.311 293.09Z" fill="#0D7D85"/>
<path d="M913.457 393.006C913.451 393.013 913.446 393.019 913.439 393.026C916.36 390.246 919.755 387.397 923.391 384.541C919.536 387.405 915.969 390.337 913.457 393.006Z" fill="#0D7D85"/>
<path d="M946.554 369.473C946.554 369.473 945.924 369.837 944.911 370.434C945.469 370.13 945.967 369.813 946.534 369.511L946.554 369.473Z" fill="#0D7D85"/>
<path d="M1158.46 247.389C1156.54 248.7 1154.66 250.633 1152.83 253.045C1140.8 268.926 1131.24 304.378 1131.24 304.378C1131.24 304.378 1156.01 299.979 1178.82 311.651C1178.78 311.631 1178.74 311.601 1178.7 311.581C1178.7 311.581 1181.29 312.894 1192.63 311.581L1203.97 310.267L1211.63 327.769V308.078L1226.4 305.345L1235.69 338.162L1235.8 325.94C1235.09 320.799 1234.42 316.51 1233.81 313.482C1228.59 287.373 1173.77 248.212 1173.77 248.212C1174.87 247.845 1176.62 248.124 1178.71 248.756C1176.54 247.9 1174.42 247.223 1172.34 246.689C1181.78 241.314 1193.32 235.938 1202.55 231.899C1211.72 227.881 1218.57 225.189 1218.57 225.189C1218.57 225.189 1204.85 219.112 1187.77 226.551C1184.42 228.009 1181.68 229.894 1179.25 231.899C1173.53 236.61 1170.16 242.093 1168.4 245.832C1166.77 245.581 1165.19 245.441 1163.66 245.441C1162.79 245.441 1161.92 245.689 1161.05 245.998C1164.08 241.42 1167.65 236.575 1171.28 231.899C1181.71 218.452 1192.63 206.445 1192.63 206.445C1192.63 206.445 1174.83 203.412 1164.52 220.119C1162.08 224.076 1160.62 228.105 1159.68 231.898C1158.04 238.586 1158.17 244.386 1158.46 247.389Z" fill="#0D7D85"/>
<path d="M899.837 457.036C886.792 461.956 891.154 483.17 891.154 483.17C891.154 483.17 898.753 474.946 907.435 483.17C916.121 491.393 915.18 520.539 915.18 520.539C915.18 520.539 928.604 519.451 929.147 500.999C929.689 482.545 917.954 450.206 899.837 457.036Z" fill="#F2E0E0"/>
<path d="M1285.39 457.036C1298.43 461.956 1294.07 483.17 1294.07 483.17C1294.07 483.17 1286.47 474.946 1277.79 483.17C1269.1 491.393 1270.04 520.539 1270.04 520.539C1270.04 520.539 1266.97 520.233 1263.72 517.964C1265.81 521.374 1269.21 526.959 1273.26 533.773C1285.81 529.524 1298.07 510.095 1302.57 490.039C1302.67 488.948 1304.73 464.726 1285.39 457.036Z" fill="#F2E0E0"/>
<path d="M1261.9 515.82C1261.64 514.936 1261.46 514.316 1261.46 514.316C1261.46 514.316 1262.29 515.641 1263.72 517.964C1266.97 520.233 1270.04 520.539 1270.04 520.539C1270.04 520.539 1269.1 491.392 1277.79 483.17C1286.47 474.946 1294.07 483.17 1294.07 483.17C1294.07 483.17 1298.43 461.955 1285.39 457.036C1267.27 450.206 1255.53 482.546 1256.08 501C1256.12 502.4 1256.36 503.518 1256.54 504.724L1261.9 515.82Z" fill="#959BAB"/>
<path d="M1198.33 334.942C1205.8 351.901 1208.57 372.735 1211.42 383.684C1211.45 383.801 1211.48 383.942 1211.52 384.054C1211.63 384.493 1211.86 384.849 1211.99 385.273C1212.04 385.417 1212.11 385.544 1212.16 385.686C1217.55 401.733 1235.69 408.299 1235.69 408.299C1235.69 408.299 1231.87 430.598 1232.41 437.239C1232.96 443.882 1248.93 456.104 1248.93 456.104C1248.93 456.104 1241.2 365.101 1235.8 325.939L1235.69 338.161L1226.4 305.344L1211.63 308.077V327.768L1203.97 310.266L1192.63 311.58C1181.29 312.893 1178.7 311.58 1178.7 311.58C1178.74 311.6 1178.78 311.63 1178.82 311.65C1187.69 316.039 1193.85 324.786 1198.33 334.942Z" fill="#172E32"/>
<path d="M1164.36 545.35C1167.14 548.416 1169.55 551.681 1169.87 554.119C1170.69 560.272 1172.38 568.068 1172.38 568.068C1172.38 568.068 1183.32 546.27 1175.57 540.553C1172.11 537.997 1167.66 536.951 1163.78 536.533C1164.24 540.248 1164.5 543.109 1164.36 545.35Z" fill="#959BAB"/>
<path d="M1264.58 644.64C1264.55 645.092 1264.6 645.447 1264.56 645.912C1264.56 645.945 1264.55 645.979 1264.55 646.012C1264.86 645.434 1265.16 644.859 1265.47 644.279L1264.58 644.64Z" fill="#172E32"/>
<path d="M1212.09 658.227C1212.12 644.716 1207.55 638.539 1207.55 638.539C1207.48 638.451 1207.52 638.338 1207.47 638.246C1181.54 653.718 1149.21 669.481 1118.49 675.897C1118.38 675.92 1118.26 675.923 1118.15 675.945C1120.65 676.399 1150.79 681.452 1189.62 672.62V686.275L1201.99 669.435C1205.19 668.488 1208.46 667.381 1211.76 666.187C1211.96 663.162 1212.09 660.412 1212.09 658.227Z" fill="#0D7D85"/>
<path d="M1249.48 618.053C1248.23 617.422 1247.7 615.893 1248.32 614.633C1248.95 613.372 1250.45 612.847 1251.72 613.441C1252.32 613.733 1266.13 620.788 1264.58 644.641L1265.47 644.28C1272.13 631.954 1277.49 619.897 1279.48 610.329C1278.88 609.781 1278.33 609.141 1277.69 608.69C1267.35 601.485 1257.55 603.725 1257.13 603.825C1256.65 603.946 1256.19 603.764 1255.74 603.608C1254.97 604.725 1254.09 605.707 1253.13 606.58C1252.95 606.751 1252.82 606.996 1252.63 607.155C1244.63 613.776 1229.96 624.487 1211.76 635.629C1212.58 636.77 1217.24 643.821 1217.21 658.24C1217.21 659.951 1217.13 661.974 1217.01 664.177C1218.74 663.498 1220.47 662.808 1222.2 662.078L1222.73 661.886L1226.97 673.01L1230.7 658.375L1259.28 646.791C1259.32 646.343 1259.42 645.911 1259.46 645.462C1261.32 624.23 1249.97 618.293 1249.48 618.053Z" fill="#0D7D85"/>
<path d="M1245.77 689.181C1245.86 689.017 1253.19 675.627 1257.19 658.758C1242.94 682.462 1227.41 703.307 1227.41 703.307C1227.94 703.029 1228.56 702.606 1229.12 702.287C1233.88 699.54 1239.52 695.375 1245.65 690.181C1245.68 689.841 1245.59 689.5 1245.77 689.181Z" fill="#F2E0E0"/>
<path d="M1292.25 637.437C1292.21 637.236 1288.6 618.683 1279.48 610.329C1277.49 619.897 1272.13 631.954 1265.47 644.28C1265.16 644.86 1264.87 645.435 1264.55 646.013C1263.29 660.211 1258.6 673.375 1254.92 681.918C1268.74 669.072 1283.43 653.19 1294.42 639.408C1293.37 639.243 1292.46 638.535 1292.25 637.437Z" fill="#F2E0E0"/>
<path d="M1261.46 514.316C1261.46 514.316 1261.65 514.936 1261.9 515.82C1264.51 524.827 1279.16 576.312 1280.38 602.161C1280.42 602.807 1280.27 603.587 1280.25 604.276C1280.37 604.358 1280.49 604.405 1280.61 604.49C1292.16 612.536 1296.55 632.809 1297.17 635.92C1305.45 625.189 1311.06 616.148 1311.47 611.621C1312.4 601.386 1288.34 559.113 1273.26 533.774C1269.21 526.96 1265.81 521.375 1263.72 517.965C1262.29 515.642 1261.46 514.316 1261.46 514.316Z" fill="#F2E0E0"/>
<path d="M1245.77 689.181C1245.59 689.499 1245.68 689.841 1245.65 690.18C1245.55 691.164 1245.83 692.154 1246.75 692.666C1247.14 692.891 1247.57 692.997 1248 692.997C1248.89 692.997 1249.76 692.527 1250.23 691.691C1250.43 691.333 1252.45 687.634 1254.92 681.916C1258.6 673.374 1263.29 660.209 1264.55 646.011C1264.55 645.978 1264.56 645.944 1264.56 645.911C1264.6 645.446 1264.55 645.091 1264.58 644.639C1266.13 620.787 1252.32 613.731 1251.72 613.439C1250.45 612.846 1248.95 613.371 1248.32 614.631C1247.7 615.891 1248.23 617.42 1249.48 618.051C1249.97 618.291 1261.32 624.228 1259.46 645.459C1259.42 645.908 1259.33 646.34 1259.28 646.788C1258.85 650.901 1258.1 654.898 1257.19 658.756C1253.19 675.627 1245.86 689.017 1245.77 689.181Z" fill="#172E32"/>
<path d="M1217.21 658.239C1217.24 643.82 1212.58 636.769 1211.76 635.628C1211.7 635.544 1211.6 635.412 1211.59 635.391C1210.72 634.286 1209.14 634.091 1208.02 634.952C1206.99 635.745 1206.83 637.149 1207.47 638.246C1207.52 638.338 1207.48 638.451 1207.55 638.539C1207.55 638.539 1212.12 644.716 1212.09 658.227C1212.08 660.413 1211.96 663.163 1211.76 666.187C1210.65 683.114 1207.08 709.878 1207.04 710.198C1206.85 711.597 1207.84 712.888 1209.24 713.072C1209.35 713.093 1209.47 713.098 1209.58 713.098C1210.85 713.098 1211.94 712.164 1212.12 710.878C1212.29 709.517 1216.11 680.978 1217.01 664.176C1217.13 661.972 1217.21 659.95 1217.21 658.239Z" fill="#172E32"/>
<path d="M1280.61 604.489C1280.49 604.405 1280.37 604.357 1280.25 604.275C1271.26 598.168 1262.59 598.042 1258.44 598.462C1258.14 598.491 1257.93 598.519 1257.68 598.553C1256.7 598.685 1256.01 598.825 1255.9 598.851C1254.53 599.195 1253.7 600.575 1254.04 601.949C1254.2 602.603 1254.63 603.117 1255.16 603.459C1255.34 603.572 1255.54 603.538 1255.74 603.607C1256.19 603.763 1256.64 603.945 1257.13 603.824C1257.55 603.724 1267.34 601.484 1277.68 608.689C1278.33 609.141 1278.88 609.78 1279.48 610.328C1288.6 618.682 1292.21 637.235 1292.25 637.436C1292.45 638.535 1293.37 639.242 1294.42 639.406C1294.54 639.424 1294.64 639.533 1294.77 639.533C1294.92 639.533 1295.08 639.518 1295.23 639.488C1296.62 639.232 1297.54 637.901 1297.29 636.514C1297.28 636.459 1297.21 636.108 1297.17 635.92C1296.55 632.808 1292.16 612.535 1280.61 604.489Z" fill="#172E32"/>
<path d="M895.913 257.106C838.878 327.75 862.835 408.297 863.094 409.088C863.446 410.172 864.445 410.857 865.528 410.857C865.787 410.857 866.056 410.818 866.316 410.732C867.667 410.293 868.397 408.851 867.958 407.506C867.718 406.736 844.56 328.864 899.896 260.328C909.216 248.782 922.216 239.285 937.874 231.899C944.896 228.586 952.504 225.762 960.581 223.366C979.278 217.822 1000.46 214.653 1023.61 214.472C1024.36 214.468 1025.09 214.462 1025.83 214.462C1049.04 214.462 1070 217.307 1086.55 221.569C1103.94 226.048 1116.47 232.09 1121.47 238.098C1122.38 239.185 1123.99 239.325 1125.08 238.424C1126.17 237.518 1126.31 235.904 1125.41 234.817C1125.13 234.477 1124.75 234.151 1124.43 233.815C1110.94 219.473 1068.34 209.252 1023.57 209.351C1012.95 209.434 1002.71 210.109 992.893 211.339C967.309 214.549 944.753 221.591 926.517 231.897C914.201 238.86 903.831 247.295 895.913 257.106Z" fill="#172E32"/>
<path d="M913.049 290.248C875.653 346.4 886.548 396.507 893.915 417.322C896.184 423.733 898.132 427.462 898.215 427.61C898.674 428.461 899.555 428.942 900.455 428.942C900.877 428.942 901.297 428.844 901.685 428.628C902.927 427.944 903.375 426.392 902.705 425.15C902.583 424.935 898.41 416.942 895.228 403.656C889.51 379.772 887.031 338.564 917.311 293.091C925.988 280.063 936.064 269.952 946.726 262.072C991.675 228.85 1047.21 235.99 1053.96 238.703C1055.12 239.341 1056.58 239.007 1057.32 237.89C1058.11 236.716 1057.8 235.124 1056.63 234.336C1054.5 232.903 1036.24 229.664 1012.9 232.01C1008.14 232.49 1003.19 233.181 998.093 234.191C973.025 239.157 937.915 252.908 913.049 290.248Z" fill="#172E32"/>
<path d="M1163.43 549.17C1163.25 549.332 1162.03 550.451 1160.05 552.163C1161.62 551.404 1162.76 550.411 1163.43 549.17Z" fill="#0D7D85"/>
<path d="M1009.14 523.051C1007.36 537.965 1005.61 545.14 1007.73 549.158C1014.28 553.039 1033.26 555.829 1038.87 553.931C1044.87 551.905 1051.51 547.232 1059.72 543.884C1067.93 540.534 1086.02 546.208 1086.02 546.208C1086.02 546.208 1099.99 541.648 1108.77 543.213C1109.75 543.341 1110.65 543.557 1111.45 543.884C1119.66 547.232 1126.3 551.905 1132.29 553.931C1137.91 555.829 1156.89 553.051 1163.43 549.17C1163.98 548.136 1164.26 546.88 1164.36 545.35C1164.5 543.109 1164.24 540.248 1163.78 536.533C1163.32 532.919 1162.68 528.513 1162.03 523.051C1161.78 520.893 1148.25 510.004 1144.18 512.921C1140.12 515.838 1135.91 529.94 1135.91 529.94C1135.91 529.94 1156.19 523.582 1156.69 527.447C1158.36 540.188 1140.13 538.606 1136.97 537.149C1134.84 536.164 1116.34 527.941 1103.49 523.578C1097.29 521.471 1092.4 520.251 1091.33 521.202C1089.43 522.883 1087.19 526.747 1085.59 529.767C1083.98 526.746 1081.74 522.882 1079.84 521.202C1077.37 519.005 1054.54 528.328 1042.06 533.693C1037.97 535.451 1034.98 536.788 1034.2 537.149C1031.03 538.606 1012.81 540.188 1014.48 527.447C1014.98 523.583 1035.26 529.94 1035.26 529.94C1035.26 529.94 1034.9 528.772 1034.33 527.107C1034.21 526.738 1034.07 526.347 1033.93 525.93C1032.37 521.529 1029.66 514.838 1026.98 512.921C1025.95 512.184 1024.32 512.338 1022.44 513.004C1021.88 513.202 1021.29 513.51 1020.7 513.79C1020.27 513.991 1019.87 514.15 1019.43 514.386C1014.51 517.07 1009.29 521.719 1009.14 523.051Z" fill="#0D7D85"/>
<path d="M1086.49 563.059C1086.47 563.079 1086.5 563.085 1086.62 563.074C1086.59 563.068 1086.54 563.059 1086.51 563.053C1086.51 563.057 1086.49 563.058 1086.49 563.059Z" fill="#172E32"/>
<path d="M1132.29 553.931C1126.3 551.905 1119.66 547.232 1111.45 543.884C1110.65 543.557 1109.71 543.382 1108.77 543.213C1099.99 541.648 1086.02 546.208 1086.02 546.208C1086.02 546.208 1067.93 540.534 1059.72 543.884C1051.51 547.232 1044.87 551.905 1038.87 553.931C1033.26 555.829 1014.28 553.039 1007.73 549.158C1007.91 549.322 1009.14 550.452 1011.12 552.163C1016.28 556.624 1026.01 564.672 1032.74 568.224C1034.13 568.955 1035.44 569.564 1036.5 569.835C1044.78 571.954 1081.44 564.102 1086.49 563.06C1086.49 563.054 1086.44 563.059 1086.47 563.048C1086.48 563.05 1086.5 563.054 1086.51 563.054C1086.53 563.05 1086.58 563.042 1086.6 563.037C1087.4 562.956 1086.94 563.043 1086.62 563.075C1093.74 564.315 1126.93 571.816 1134.67 569.835C1140.88 568.248 1153.83 557.543 1160.06 552.163C1162.03 550.452 1163.25 549.333 1163.44 549.17C1156.89 553.051 1137.91 555.829 1132.29 553.931Z" fill="#172E32"/>
<path d="M844.316 876.786L858.757 882.365L1034.65 950.315L1054.31 906.945L1090.24 978.644L1038.78 974.686L852.541 906.934C780.7 928.039 715.054 992.681 720.635 1012.26C726.225 1031.87 820.792 1138.05 848.473 1177.79C882.907 1227.22 919.745 1389.92 922.843 1403.8H1369.67C1369.69 1403.47 1378.05 1217.91 1384.32 1180.3C1390.59 1142.65 1428.24 1092.46 1428.24 1092.46C1428.24 1092.46 1413.6 1138.47 1407.32 1199.12C1401.06 1259.7 1464.58 1403.47 1464.72 1403.8H1597.55L1571.99 1295.91L1552.11 1211.99C1554.59 1226.68 1556.06 1235.76 1556.06 1235.76C1556.06 1235.76 1522.09 1072.68 1486.41 1028.51C1451.87 985.737 1358.16 887.827 1352.26 881.67C1349.4 880.077 1346.53 878.494 1343.65 876.935L1355.9 872.132C1350.54 860.458 1339.34 837.268 1331.82 829.75C1324.63 822.555 1275.99 800.985 1247.98 788.912L1218.7 780.029H1218.7L1218.71 780.09L1220.6 789.074L1301.08 820.107L1250.45 836.552L1133.44 899.624L1096.26 971.039L1096.26 971.041L1095.6 970.647L1058.07 899.624L942.123 838.05L939.306 836.553L887.916 820.108L965.943 788.95L967.27 781.304L837.412 820.109L830.441 871.427L843.087 876.313C843.147 876.285 843.209 876.252 843.27 876.224C843.312 876.201 843.708 876.42 844.316 876.786ZM1137.14 906.945L1156.51 950.315L1343.57 876.968L1365.82 895.897L1152.44 974.686H1097.73L1137.14 906.945Z" fill="#0CE7BB"/>
<path d="M1038.78 974.686L1090.24 978.644L1054.31 906.945L1034.65 950.315L858.757 882.365L844.316 876.786C849.01 879.62 868.176 892.594 865.957 894.268C860.868 898.107 858.392 905.213 852.911 906.812C852.786 906.849 852.666 906.897 852.541 906.933L1038.78 974.686Z" fill="#172E32"/>
<path d="M1220.27 788.95L1222.73 824.566L1224.1 825.156L1250.45 836.553L1301.08 820.108L1220.6 789.075L1220.28 788.95H1220.27Z" fill="#172E32"/>
<path d="M1097.73 974.686H1152.44L1365.82 895.897L1343.57 876.968L1156.51 950.315L1137.14 906.945L1097.73 974.686Z" fill="#172E32"/>
<path d="M1407.32 1199.12C1413.6 1138.47 1428.24 1092.46 1428.24 1092.46C1428.24 1092.46 1390.59 1142.65 1384.32 1180.3C1378.05 1217.91 1369.69 1403.47 1369.67 1403.8L1369.67 1403.81H1464.73L1464.72 1403.8C1464.58 1403.47 1401.06 1259.7 1407.32 1199.12Z" fill="#172E32"/>
<path d="M848.473 1177.79C820.792 1138.04 726.225 1031.87 720.635 1012.26C715.054 992.682 780.7 928.039 852.541 906.934C852.665 906.899 852.786 906.85 852.911 906.813C858.392 905.214 860.867 898.107 865.957 894.269C868.176 892.595 849.01 879.621 844.316 876.787C843.708 876.421 843.312 876.201 843.269 876.223C843.208 876.251 843.146 876.284 843.086 876.312C766.257 913.148 682.013 962.666 671.817 1012.91C671.665 1012.88 671.563 1012.86 671.563 1012.86L671.198 1015.58C670.983 1016.65 670.759 1018.09 670.63 1019.83L632.378 1305.74L625.648 1356.05L619.188 1404.33L619.066 1405.24H837.251L837.269 1404.33L837.28 1403.8L837.313 1402.22C837.475 1402.85 837.618 1403.4 837.722 1403.8C837.789 1404.05 837.82 1404.17 837.861 1404.33C837.922 1404.56 837.998 1404.85 837.998 1404.85H923.077C923.077 1404.85 923.038 1404.67 922.962 1404.33C922.935 1404.21 922.879 1403.96 922.842 1403.8C919.745 1389.92 882.907 1227.22 848.473 1177.79ZM718.032 1304.62C687.836 1255.73 700.869 1095.99 705.074 1052.55C708.042 1053.07 711.23 1053.5 714.716 1053.81C735.484 1055.62 761.344 1078.36 768.557 1088.19C785.313 1111.02 799.015 1177.8 807.791 1244.62C814.637 1296.78 823.304 1340.81 829.595 1369.44C807.358 1365.43 746.406 1350.56 718.032 1304.62Z" fill="#172E32"/>
<path d="M912.568 515.399C912.48 513.997 911.247 512.838 909.848 513.004C908.438 513.092 907.368 514.31 907.448 515.721C907.647 518.894 907.613 525.152 906.658 531.176C905.838 536.352 904.349 541.361 901.645 544.057C900.174 545.516 898.492 546.161 896.363 546.037C891.532 545.723 889.012 542.537 888.26 539.661C887.512 536.761 888.252 532.649 892.612 529.829C893.803 529.059 894.143 527.471 893.374 526.288C892.612 525.102 891.012 524.778 889.833 525.527C884.271 529.127 881.769 535.041 883.31 540.953C884.811 546.738 889.804 550.739 896.024 551.15C896.326 551.168 896.626 551.18 896.924 551.18C900.127 551.18 902.937 550.002 905.259 547.682C908.577 544.377 910.422 539.024 911.448 533.614C913.106 524.875 912.604 515.993 912.568 515.399Z" fill="#172E32"/>
<path d="M1331.82 829.751C1339.34 837.269 1350.54 860.459 1355.9 872.133C1357.81 876.286 1359 879.015 1359 879.015L1353.91 812.764L1343.72 810.147L1228.19 780.485C1228.19 780.485 1236.31 783.879 1247.98 788.913C1275.99 800.986 1324.63 822.556 1331.82 829.751Z" fill="#F2E0E0"/>
<path d="M1490.35 969.712C1473.97 957.606 1442.64 937.496 1413.88 919.492C1387.18 902.774 1362.81 887.938 1354.78 883.072C1353 881.987 1351.96 881.363 1351.96 881.363C1351.96 881.363 1352.07 881.469 1352.26 881.671C1358.16 887.827 1451.87 985.738 1486.41 1028.51C1522.09 1072.68 1556.07 1235.76 1556.07 1235.76C1556.07 1235.76 1554.59 1226.68 1552.11 1211.99C1541.77 1150.78 1513.71 991.25 1500.01 977.548C1498.11 975.653 1494.74 972.955 1490.35 969.712Z" fill="#F2E0E0"/>
<path d="M1248.93 456.104C1248.93 456.104 1265.6 449.165 1285.39 457.035C1304.73 464.725 1302.67 488.947 1302.57 490.039C1302.57 490.065 1302.56 490.142 1302.56 490.142C1302.56 490.142 1313.01 451.85 1293.86 443.148C1289.59 441.207 1285.4 440.37 1281.41 440.074C1267.51 439.039 1256.44 445.759 1256.44 445.759C1256.44 445.759 1261.66 333.496 1252.96 311.741C1247.3 297.595 1219.97 273.582 1198.65 259.424C1190.64 254.104 1183.54 250.223 1178.71 248.757C1176.62 248.125 1174.87 247.845 1173.77 248.213C1173.77 248.213 1228.59 287.374 1233.81 313.483C1234.42 316.511 1235.09 320.8 1235.8 325.941C1241.2 365.102 1248.93 456.104 1248.93 456.104Z" fill="#F2E0E0"/>
<g filter="url(#filter0_d_2_4)">
<path d="M1798.94 491.438H1744.83H1560.38H1524.42V544.336V672.027H1648.74H1798.94H1845.23H1870.56H2141.27V491.438H1870.56H1845.23H1798.94ZM1865.45 624.925H1608.64V601.799H1865.45V624.925ZM2021 624.925H1912.23V601.799H2021V624.925ZM2022.29 551.203V574.328H1608.64V551.203H2022.29Z" fill="#F2E0E0"/>
</g>
<g filter="url(#filter1_d_2_4)">
<path d="M1798.94 726.429H1619.8H1518.61V780.148H1591.21H1798.94H1845.23H1845.59V726.429H1845.23H1798.94Z" fill="#F2E0E0"/>
</g>
<path d="M1970.67 726.429H1886.76V780.148H1970.67V726.429Z" fill="#F2E0E0"/>
<path d="M2141.88 726.429H2014.94V780.148H2141.88V726.429Z" fill="#F2E0E0"/>
<path d="M449.525 907.165V748.868H353.624H316.906V633.597L353.624 596.873L355.839 594.656L353.624 592.442L351.753 590.571L311.125 631.203V754.65H353.624H443.743V901.383H353.624H319.413V999.969L348.444 1029L352.533 1024.91L325.194 997.576V907.165H353.624H449.525Z" fill="#0CE7BB"/>
<path d="M2022.29 551.203H1608.64V574.328H2022.29V551.203Z" fill="#0CE7BB"/>
<path d="M1865.45 601.799H1608.64V624.925H1865.45V601.799Z" fill="#0CE7BB"/>
<path d="M2021 601.799H1912.23V624.925H2021V601.799Z" fill="#0CE7BB"/>
<defs>
<filter id="filter0_d_2_4" x="1492.42" y="491.438" width="648.856" height="212.589" filterUnits="userSpaceOnUse" color-interpolation-filters="sRGB">
<feFlood flood-opacity="0" result="BackgroundImageFix"/>
<feColorMatrix in="SourceAlpha" type="matrix" values="0 0 0 0 0 0 0 0 0 0 0 0 0 0 0 0 0 0 127 0" result="hardAlpha"/>
<feOffset dx="-16" dy="16"/>
<feGaussianBlur stdDeviation="8"/>
<feComposite in2="hardAlpha" operator="out"/>
<feColorMatrix type="matrix" values="0 0 0 0 0 0 0 0 0 0 0 0 0 0 0 0 0 0 0.25 0"/>
<feBlend mode="normal" in2="BackgroundImageFix" result="effect1_dropShadow_2_4"/>
<feBlend mode="normal" in="SourceGraphic" in2="effect1_dropShadow_2_4" result="shape"/>
</filter>
<filter id="filter1_d_2_4" x="1494.61" y="726.429" width="350.982" height="77.719" filterUnits="userSpaceOnUse" color-interpolation-filters="sRGB">
<feFlood flood-opacity="0" result="BackgroundImageFix"/>
<feColorMatrix in="SourceAlpha" type="matrix" values="0 0 0 0 0 0 0 0 0 0 0 0 0 0 0 0 0 0 127 0" result="hardAlpha"/>
<feOffset dx="-12" dy="12"/>
<feGaussianBlur stdDeviation="6"/>
<feComposite in2="hardAlpha" operator="out"/>
<feColorMatrix type="matrix" values="0 0 0 0 0 0 0 0 0 0 0 0 0 0 0 0 0 0 0.25 0"/>
<feBlend mode="normal" in2="BackgroundImageFix" result="effect1_dropShadow_2_4"/>
<feBlend mode="normal" in="SourceGraphic" in2="effect1_dropShadow_2_4" result="shape"/>
</filter>
</defs>
</svg>
